<?xml version="1.0" encoding="UTF-8" standalone="no"?>
<svg
   xmlns:dc="http://purl.org/dc/elements/1.1/"
   xmlns:cc="http://creativecommons.org/ns#"
   xmlns:rdf="http://www.w3.org/1999/02/22-rdf-syntax-ns#"
   xmlns:svg="http://www.w3.org/2000/svg"
   xmlns="http://www.w3.org/2000/svg"
   xmlns:sodipodi="http://sodipodi.sourceforge.net/DTD/sodipodi-0.dtd"
   xmlns:inkscape="http://www.inkscape.org/namespaces/inkscape"
   id="svg"
   version="1.1"
   width="400"
   height="400"
   viewBox="0, 0, 400,400"
   sodipodi:docname="swag_logo_vector_02.svg"
   inkscape:version="1.0.2-2 (e86c870879, 2021-01-15)">
  <metadata
     id="metadata10">
    <rdf:RDF>
      <cc:Work
         rdf:about="">
        <dc:format>image/svg+xml</dc:format>
        <dc:type
           rdf:resource="http://purl.org/dc/dcmitype/StillImage" />
        <dc:title></dc:title>
      </cc:Work>
    </rdf:RDF>
  </metadata>
  <defs
     id="defs8" />
  <sodipodi:namedview
     pagecolor="#ffffff"
     bordercolor="#666666"
     borderopacity="1"
     objecttolerance="10"
     gridtolerance="10"
     guidetolerance="10"
     inkscape:pageopacity="0"
     inkscape:pageshadow="2"
     inkscape:window-width="1589"
     inkscape:window-height="911"
     id="namedview6"
     showgrid="false"
     inkscape:zoom="0.82106903"
     inkscape:cx="481.5891"
     inkscape:cy="212.83516"
     inkscape:window-x="0"
     inkscape:window-y="0"
     inkscape:window-maximized="0"
     inkscape:current-layer="svg"
     inkscape:document-rotation="0" />
  <path
     style="opacity:1;fill:#ffff00;fill-rule:evenodd;stroke-width:1.07555"
     d="m 329.32239,209.34152 c -38.77079,-2.23644 -51.43768,-6.21607 -61.89533,-19.44598 -3.84003,-4.85803 -8.55343,-15.14607 -8.55343,-18.66981 0,-0.86515 -0.363,-1.60035 -0.80666,-1.63379 -0.44367,-0.0334 -9.76066,-0.91817 -20.70442,-1.96605 -10.94376,-1.04788 -20.16305,-1.51301 -20.48732,-1.03363 -0.32426,0.47938 -1.43898,7.03648 -2.47716,14.57134 -1.03817,7.53485 -2.11705,13.92921 -2.39755,14.20968 -0.28047,0.28047 -5.45773,-0.13017 -11.50503,-0.91255 -6.0473,-0.78238 -13.87872,-1.72324 -17.40318,-2.09082 l -6.40809,-0.66832 -0.92437,-4.30221 c -0.5084,-2.36622 -4.76305,-23.13714 -9.45474,-46.15761 -4.69171,-23.02046 -8.7289,-42.053897 -8.97152,-42.296527 -0.24264,-0.24263 -0.68745,0.44232 -0.98851,1.522117 -0.83162,2.98297 -19.81971,80.05189 -20.55689,83.43647 -0.50707,2.32808 -1.25613,2.95777 -3.51846,2.95777 -5.09883,0 -26.98271,-2.42617 -28.01536,-3.10594 -0.55018,-0.36217 -2.30795,-14.43424 -3.90616,-31.27126 -1.598213,-16.83701 -3.114343,-30.82126 -3.369193,-31.07611 -0.82548,-0.82548 -1.32314,2.28964 -2.57443,16.11471 -2.08038,22.98569 -7.167709,35.51503 -16.564685,40.79643 -7.423496,4.17224 -14.458641,3.9176 -44.294754,-1.60325 -32.59720113,-6.03178 -31.0142861,-5.58602 -30.2250642,-8.51157 0.343693,-1.27397 1.7114891,-7.2773 3.0395531,-13.34073 1.680302,-7.67165 2.879067,-11.02443 3.9416831,-11.02443 0.839862,0 8.107301,1.27191 16.14987,2.82647 9.323056,1.80206 18.666765,2.87405 25.78061,2.95777 10.725598,0.12622 11.234763,0.0272 13.145705,-2.55758 1.831744,-2.47764 5.312439,-21.88842 4.121787,-22.98603 -0.253486,-0.23367 -8.446855,-0.97967 -18.207514,-1.65779 -19.502881,-1.35494 -25.200215,-3.09979 -29.51713,-9.03983 -7.236853,-9.95783 1.490722,-49.751414 12.780511,-58.272992 6.962156,-5.255072 12.344439,-5.918733 48.000769,-5.918733 h 33.024822 l 0.67915,4.571101 c 0.37351,2.514107 2.33193,19.986201 4.35201,38.826877 2.02009,18.840677 3.93604,34.518917 4.25767,34.840547 0.80691,0.80692 0.68918,1.2027 9.67542,-32.527497 4.41275,-16.563526 8.26485,-30.8415 8.56016,-31.728833 0.29533,-0.88733 1.30962,-4.396325 2.25397,-7.797762 l 1.71701,-6.184433 h 11.19079 c 9.72658,0 11.2644,0.246271 11.7533,1.882218 0.91472,3.060613 16.98628,70.349237 17.86411,74.793617 0.91931,4.6544 1.86596,6.04979 2.62937,3.87574 0.28939,-0.82411 2.25139,-12.38837 4.35998,-25.69834 2.1086,-13.309977 4.94336,-30.975945 6.29946,-39.257708 l 2.46566,-15.057752 73.82441,-0.276287 c 69.49232,-0.260077 73.88172,-0.165404 74.80099,1.613329 1.24413,2.407362 7.97015,25.16256 7.51479,25.423781 -0.18761,0.107625 -24.22319,-0.218092 -53.41238,-0.723818 -29.1892,-0.505725 -53.30584,-0.684943 -53.59252,-0.398259 -1.07838,1.078385 39.54026,88.359854 42.52202,91.371444 1.11699,1.12815 4.77232,2.3612 8.82436,2.97668 9.3263,1.41662 41.11867,2.96622 42.19857,2.0568 0.47485,-0.39988 -0.96075,-8.505 -3.19022,-18.01138 l -4.05359,-17.28433 -9.71641,-0.63049 c -5.34404,-0.34677 -11.41042,-0.7471 -13.48086,-0.88961 l -3.76444,-0.25912 -2.59554,-13.17925 c -1.42753,-7.24859 -2.38785,-13.38693 -2.13403,-13.64075 1.07104,-1.07105 60.70366,1.82861 61.85741,3.00784 1.91369,1.95594 28.37869,93.60077 28.37869,98.2717 0,1.58015 -42.13121,1.69411 -68.29767,0.18473 z m -84.43097,-72.96116 c 0,-1.3385 -14.63732,-40.401987 -16.04381,-42.817097 -0.6048,-1.03849 -1.1188,-1.40416 -1.14225,-0.81261 -0.0234,0.59156 -1.45922,10.271537 -3.1906,21.511077 -1.73138,11.23953 -2.81589,20.77194 -2.41007,21.18313 0.67428,0.68317 6.0616,1.19716 18.21565,1.7379 2.5141,0.11185 4.57108,-0.24923 4.57108,-0.8024 z M 94.907667,97.296163 c -0.94873,-9.00713 -2.0094,-18.433594 -2.35703,-20.947699 L 91.918577,71.77736 H 70.529625 c -24.781981,0 -24.633789,-0.05653 -26.764836,10.208744 -0.981142,4.726069 -0.973423,6.805699 0.03425,9.238439 0.715219,1.72669 1.362685,3.18288 1.438799,3.23597 0.07611,0.0531 7.889182,0.46899 17.362334,0.92421 14.530492,0.69826 17.94302,1.19453 21.822165,3.17352 5.15953,2.632197 8.25626,6.934447 10.14197,14.090157 2.06984,7.85443 2.19558,2.23256 0.34336,-15.352237 z"
     id="path109" />
  <path
     style="opacity:1;fill:#f9f9f9;fill-rule:evenodd;stroke-width:1.07555"
     d="m 58.799665,344.1832 c -16.831812,-4.37581 -18.683175,-5.53881 -26.453281,-16.61742 -3.687536,-5.25767 -7.452758,-11.81193 -8.367202,-14.56501 -0.914424,-2.75308 -3.593149,-7.57493 -5.952724,-10.71523 -3.653494,-4.86233 -4.290136,-6.498 -4.290136,-11.02224 0,-6.79295 2.834367,-12.35648 9.108724,-17.87939 6.597582,-5.80743 8.74624,-6.03265 16.33167,-1.71194 3.458655,1.97007 7.06182,3.58801 8.007057,3.59541 1.22933,0.01 4.843049,-7.4118 12.693595,-26.06872 6.036267,-14.3452 11.917885,-28.15212 13.070273,-30.68205 3.326232,-7.30234 3.267998,-7.3631 -8.391393,-8.75777 -39.836455,-4.76514 -39.931153,-4.79022 -38.569999,-10.2135 0.90656,-3.61201 2.245301,-3.61118 32.405074,0.0201 l 23.681701,2.85134 4.1639,-2.82569 c 5.776553,-3.92009 9.987243,-3.67346 16.384026,0.95965 8.35048,6.04815 11.58762,7.08649 24.16089,7.74978 9.68722,0.51105 12.06135,0.31885 14.31687,-1.15903 1.48716,-0.97442 3.7045,-1.77168 4.92742,-1.77168 3.17984,0 9.52996,2.83533 11.64414,5.19912 1.56743,1.75247 15.67417,3.74126 107.74561,15.19017 58.26811,7.24553 106.1437,13.36601 106.39019,13.60106 0.84458,0.80544 -3.82319,0.41992 -46.7338,-3.85987 -76.7544,-7.65527 -140.51203,-13.84252 -156.61465,-15.19839 -14.318,-1.20561 -16.19743,-1.15714 -20.61968,0.53173 -2.67615,1.02204 -5.33665,2.43777 -5.9122,3.14609 -0.57555,0.70831 -2.06783,8.04494 -3.31619,16.30361 -2.71412,17.95573 -5.69593,25.14827 -14.29487,34.4812 -7.16177,7.77309 -9.07328,11.0295 -7.43562,12.66717 1.42526,1.42526 6.25951,-0.69954 16.16263,-7.10397 l 6.91001,-4.46876 13.52551,-0.73354 c 19.83964,-1.07598 55.40972,-1.00274 64.07653,0.13193 4.14087,0.54212 13.43487,2.70518 20.65333,4.80678 l 13.12445,3.82109 h 23.46958 23.46957 l 25.78808,-8.61834 c 32.91385,-10.99976 39.6783,-12.88273 51.97187,-14.46697 l 10.05049,-1.29518 -0.73809,6.00581 c -0.40592,3.3032 -1.54065,6.91167 -2.52159,8.01881 -2.63734,2.97665 -12.6437,9.57247 -20.60573,13.58254 -6.66899,3.35883 -13.84668,8.06048 -23.01542,15.07595 -2.30629,1.76466 -5.34336,3.20846 -6.74906,3.20846 -1.40571,0 -5.85974,-1.66383 -9.89786,-3.69739 l -7.34202,-3.69738 -16.56219,5.33205 c -34.73039,11.18113 -43.8351,12.51266 -61.90971,9.054 -4.63658,-0.88722 -11.71916,-1.61322 -15.73905,-1.61333 -8.67871,-2.1e-4 -10.54081,1.38176 -15.7403,11.6819 -3.67878,7.28763 -3.67773,7.2871 -16.20852,8.05979 -5.25636,0.32413 -9.57267,1.27739 -12.38953,2.73623 -5.5532,2.87598 -30.62246,8.68032 -37.62371,8.71109 -2.95779,0.013 -8.39458,-1.03587 -12.0818,-2.33084 l -6.70404,-2.35449 -8.35373,2.88602 c -9.61649,3.32226 -29.762473,7.18411 -36.855872,7.06501 -2.662004,-0.0448 -9.971453,-1.4153 -16.243223,-3.0458 z M 82.571759,287.127 c 5.397597,-1.12494 6.792958,-2.09776 15.936348,-11.11063 8.731543,-8.60689 10.698463,-11.26153 15.287943,-20.63328 2.89694,-5.91554 8.18159,-16.07952 11.74368,-22.58662 3.56206,-6.5071 6.48347,-12.89734 6.492,-14.20053 0.0199,-3.04266 -5.20413,-4.60734 -15.41038,-4.61566 -5.73686,-0.005 -7.96211,0.46822 -10.09392,2.14511 -1.50409,1.18311 -3.85559,2.1511 -5.22558,2.1511 -1.369993,0 -4.972593,0.53223 -8.005773,1.18273 -5.164332,1.10755 -5.651954,1.50064 -7.671728,6.18444 -1.492853,3.46184 -2.456591,9.1408 -3.130421,18.44612 -1.341763,18.5295 -3.441769,24.8014 -11.319383,33.8067 -4.675776,5.34512 -6.010151,9.55466 -3.391647,10.6996 1.621469,0.70898 6.812556,0.19332 14.788861,-1.46908 z"
     id="path107" />
</svg>
